<svg width="95" height="23" viewBox="0 0 95 23" fill="none" xmlns="http://www.w3.org/2000/svg">
<g clip-path="url(#clip0_10175_1371)">
<path d="M25.4736 15.6772V15.1856C25.4736 9.31332 21.9722 5.71289 16.8422 5.71289C15.7278 5.7128 14.6246 5.9301 13.597 6.35211C12.5693 6.77412 11.6379 7.39237 10.8572 8.17075C10.0803 8.92643 9.46723 9.82774 9.05448 10.8208C8.64174 11.8138 8.43785 12.8781 8.45501 13.95C8.44154 16.1316 9.30424 18.231 10.8572 19.7957C11.6274 20.6166 12.569 21.2657 13.618 21.6989C14.6671 22.1322 15.7991 22.3395 16.9372 22.3067C18.606 22.3679 20.2536 21.9252 21.6568 21.0387C23.06 20.1523 24.1508 18.8649 24.7814 17.3512H19.5157C18.8372 17.9508 17.9454 18.2656 17.0322 18.228C16.1989 18.334 15.3554 18.131 14.6673 17.6589C13.9792 17.1869 13.4963 16.48 13.3136 15.6772H25.4736ZM20.71 12.4089H13.1914C13.4088 11.6325 13.9004 10.9568 14.5788 10.5019C15.2572 10.047 16.0784 9.84238 16.8964 9.92446C17.7237 9.86478 18.5478 10.0766 19.2384 10.5265C19.929 10.9764 20.4468 11.6388 20.71 12.4089Z" fill="#494545"/>
<path d="M43.4286 15.6772V15.1856C43.4286 9.30003 39.8864 5.71289 34.7564 5.71289C33.6514 5.72127 32.559 5.94265 31.5414 6.36437C30.5238 6.78609 29.601 7.3999 28.8257 8.17075C28.041 8.92475 27.4173 9.82401 26.991 10.8162C26.5646 11.8084 26.344 12.8736 26.3421 13.95C26.3229 16.1276 27.1754 18.226 28.7171 19.7957C29.4909 20.6204 30.4366 21.2726 31.4903 21.7081C32.544 22.1436 33.681 22.3523 34.8243 22.32C36.4947 22.3801 38.1435 21.9355 39.5468 21.0466C40.9502 20.1576 42.0401 18.8674 42.6686 17.3512H37.43C36.7515 17.9508 35.8597 18.2656 34.9464 18.228C34.1111 18.3375 33.2641 18.1362 32.5731 17.6639C31.882 17.1915 31.3972 16.4826 31.2143 15.6772H43.4286ZM38.6243 12.4089H31.1057C31.3234 11.6301 31.817 10.9525 32.4983 10.4973C33.1796 10.0421 34.0041 9.83906 34.8243 9.92446C35.6502 9.86315 36.4733 10.0745 37.1621 10.5249C37.8509 10.9752 38.3657 11.6385 38.6243 12.4089Z" fill="#494545"/>
<path d="M1.73714 9.69877V21.9349H6.39214V9.69877H8.265V6.17805H6.39214V5.79277C6.39214 4.35791 6.78571 3.89291 8.14286 3.89291H8.25143V0.717626H7.51857C3.56929 0.691054 1.71 2.21891 1.71 5.59348C1.71 5.7662 1.71 5.96548 1.71 6.17805H0V9.69877H1.73714Z" fill="#494545"/>
<path d="M45.1928 9.69892V21.9351H49.8343V9.69892H51.7207V6.1782H49.8343V5.79292C49.8343 4.35806 50.16 3.89306 51.5986 3.89306H51.7207V0.717773H50.9743C47.0114 0.717773 45.1521 2.24563 45.1521 5.6202C45.1521 5.79292 45.1521 5.9922 45.1521 6.20477H43.4286V9.69892H45.1928Z" fill="#494545"/>
<path d="M68.7121 13.9504C68.6849 12.3133 68.1646 10.7205 67.2166 9.37168C66.2686 8.02283 64.935 6.97791 63.3829 6.36788C61.8309 5.75785 60.1294 5.60986 58.4918 5.94245C56.8541 6.27504 55.3532 7.07342 54.1771 8.23752C53.392 8.99259 52.77 9.89448 52.348 10.8896C51.926 11.8847 51.7127 12.9527 51.7207 14.0301C51.696 16.1904 52.5448 18.2726 54.0821 19.8227C54.8543 20.6456 55.7979 21.2967 56.8491 21.7322C57.9003 22.1677 59.0347 22.3773 60.1757 22.3469C61.3084 22.3737 62.4347 22.173 63.4851 21.7571C64.5355 21.3413 65.4876 20.7191 66.2829 19.9289C67.0831 19.1585 67.7119 18.2344 68.13 17.2147C68.548 16.195 68.7462 15.1018 68.7121 14.0035M64.0029 14.1231C63.9879 15.0814 63.597 15.9973 62.9113 16.6812C62.2255 17.3652 61.2972 17.7647 60.3188 17.7972C59.3404 17.8296 58.3867 17.4925 57.6552 16.8555C56.9237 16.2186 56.4704 15.3306 56.3893 14.3755V14.1231C56.35 13.1452 56.7046 12.1913 57.3767 11.4667C58.0488 10.7422 58.9846 10.305 59.9827 10.2493C60.9808 10.1935 61.9614 10.5237 62.7133 11.1687C63.4652 11.8137 63.9283 12.722 64.0029 13.6979V14.1231Z" fill="#494545"/>
<path d="M76 11.3995C74.8953 11.3275 73.8551 10.8645 73.0734 10.0969C72.2918 9.32928 71.8222 8.3095 71.7521 7.22783H81.7V7.12154C81.7 3.29526 79.2028 0.731115 75.7421 0.731115C74.9282 0.705152 74.1176 0.843171 73.3604 1.13661C72.6033 1.43005 71.9158 1.87265 71.3406 2.43696C70.7655 3.00127 70.3149 3.67526 70.0168 4.41711C69.7187 5.15896 69.5795 5.95285 69.6078 6.74954C69.5861 8.33419 70.2064 9.86275 71.3332 11.0007C72.46 12.1386 74.0014 12.7931 75.62 12.8211H75.6878C76.9374 12.822 78.1555 12.4373 79.169 11.7218C80.1825 11.0063 80.9399 9.99635 81.3336 8.8354H80.3293C79.9637 9.59085 79.3876 10.2298 78.6673 10.6788C77.9469 11.1277 77.1117 11.3684 76.2578 11.373H76" fill="#FDDC47"/>
<path d="M88.635 11.3996C89.7393 11.33 90.7795 10.8674 91.5595 10.099C92.3394 9.33053 92.8053 8.30932 92.8693 7.22784H82.9079V7.12156C82.9079 3.29527 85.405 0.73113 88.8657 0.73113C89.6808 0.705064 90.4926 0.843458 91.2507 1.1377C92.0088 1.43195 92.6969 1.87575 93.2723 2.44151C93.8477 3.00726 94.298 3.68286 94.5952 4.42629C94.8924 5.16971 95.0302 5.96506 95 6.76284C95.0126 7.54845 94.8665 8.32874 94.5701 9.05892C94.2738 9.78909 93.833 10.4548 93.2731 11.0177C92.7132 11.5806 92.0452 12.0297 91.3075 12.3392C90.5697 12.6487 89.7768 12.8125 88.9743 12.8211C87.7229 12.8228 86.5028 12.4386 85.487 11.7232C84.4711 11.0078 83.7112 9.99742 83.315 8.83542H84.3193C84.6848 9.58886 85.2617 10.225 85.9826 10.6696C86.7035 11.1142 87.5387 11.349 88.3907 11.3464H88.6622" fill="#FDDC47"/>
</g>
<defs>
<clipPath id="clip0_10175_1371">
<rect width="95" height="22.5857" fill="white"/>
</clipPath>
</defs>
</svg>
