<svg width="24" height="24" viewBox="0 0 24 24" fill="none" xmlns="http://www.w3.org/2000/svg">
<mask id="mask0_4157_114" style="mask-type:luminance" maskUnits="userSpaceOnUse" x="0" y="4" width="24" height="15">
<path d="M24 4H0V19H24V4Z" fill="white"/>
</mask>
<g mask="url(#mask0_4157_114)">
<path d="M10.1143 16.1916C9.96029 16.1916 9.81102 16.1447 9.68511 16.0597C9.48915 15.9234 9.38646 15.6979 9.4191 15.4766L9.81102 12.6043L5.06613 13.783C4.79548 13.8511 4.51089 13.766 4.33363 13.566L0.1532 8.79578C0.0225666 8.64679 -0.0287526 8.44678 0.0178972 8.25964C0.0645585 8.07239 0.199861 7.91066 0.386483 7.82557L2.48134 6.87234C2.71459 6.76596 2.98989 6.78726 3.19991 6.92337L6.54508 9.10217L18.9044 4.45959C19.7208 4.1532 20.5279 4 21.2978 4C23.1034 4 23.6772 4.83409 23.8593 5.33195C24.0925 5.97446 24.0365 6.63406 23.6959 7.24684C23.3274 7.91065 22.6648 8.4256 21.839 8.70215L16.8422 10.3575L13.3056 14.9618C13.2262 15.0638 13.1189 15.1405 12.993 15.1873L10.3756 16.1405C10.2916 16.1703 10.2029 16.1873 10.1143 16.1873V16.1916ZM10.6368 11.0979C10.8048 11.0979 10.9681 11.1532 11.0941 11.2553C11.2714 11.3958 11.36 11.6043 11.332 11.8171L10.9542 14.5618L12.2745 14.0809L15.8157 9.46391C15.8997 9.35742 16.0163 9.27666 16.1516 9.22985L21.3538 7.50642C21.8483 7.34047 22.2356 7.04683 22.4455 6.67233C22.6182 6.36172 22.6462 6.05533 22.5295 5.73618C22.4175 5.43401 22.0023 5.2766 21.2978 5.2766C20.7099 5.2766 20.08 5.40006 19.4363 5.64256L6.72245 10.417C6.4985 10.5021 6.24655 10.4724 6.05058 10.3447L2.73329 8.18299L1.79089 8.61274L5.15011 12.4383L10.4595 11.1192C10.5202 11.1021 10.5808 11.0979 10.6416 11.0979H10.6368Z" fill="#002E5D"/>
<path d="M22.1854 19.0002H1.19011C0.802831 19.0002 0.490234 18.7151 0.490234 18.3619C0.490234 18.0087 0.802831 17.7236 1.19011 17.7236H22.1854C22.5726 17.7236 22.8853 18.0087 22.8853 18.3619C22.8853 18.7151 22.5726 19.0002 22.1854 19.0002Z" fill="#002E5D"/>
</g>
</svg>
