<svg preserveAspectRatio="xMidYMid meet" width="100%" height="100%" overflow="visible" style="display: block;" viewBox="0 0 40 28" fill="none" xmlns="http://www.w3.org/2000/svg">
<g id="testimonial-card__quote-icon">
<path id="Vector" fill="#002e5d" d="M30.6334 1.00977C35.3285 0.794526 38.6822 4.29071 38.9703 8.11621C39.1839 10.9545 38.2115 13.5109 36.9595 16.207C35.208 19.9788 32.8389 23.4048 30.2613 26.7637C30.1884 26.8586 30.1273 26.923 30.0797 26.9639C30.0695 26.9726 30.059 26.9776 30.0513 26.9834C30.0441 26.9796 30.0352 26.9763 30.026 26.9707C29.983 26.9447 29.9586 26.9234 29.9459 26.9111C29.9467 26.8969 29.9481 26.8714 29.9586 26.833C29.9758 26.7696 30.0089 26.6851 30.066 26.582C31.0644 24.78 31.663 22.8416 31.6373 20.7031C31.6248 19.6652 31.4943 18.7276 30.9644 17.9492C30.4282 17.1616 29.599 16.7042 28.5992 16.3408C26.5657 15.6018 25.0618 14.3511 24.0816 12.4766C23.6756 11.7001 23.4101 10.8799 23.2877 9.93359L23.2867 9.92969L23.2418 9.50488C22.8966 5.13086 26.2419 1.2111 30.6334 1.00977Z" stroke="var(--stroke-0, #002E5D)" stroke-width="2"/>
<path id="Vector_2" d="M8.28027 1.02827C12.7868 0.668089 16.3214 3.99665 16.7412 7.88472C17.0457 10.7061 16.0981 13.2613 14.8584 15.9677C13.0758 19.8593 10.6504 23.3893 7.99023 26.8339C7.93169 26.9097 7.88461 26.954 7.85352 26.9794C7.84058 26.9735 7.82285 26.9678 7.80273 26.956C7.76301 26.9328 7.73894 26.9143 7.72559 26.9023C7.72667 26.8932 7.72866 26.881 7.73242 26.8652C7.74391 26.817 7.76922 26.7477 7.81738 26.6591C8.48782 25.4258 9.0153 24.1168 9.27637 22.6787C9.46781 21.624 9.48963 20.561 9.35645 19.5185C9.13173 17.7597 7.86341 16.8483 6.55371 16.3916C5.13863 15.898 3.94252 15.192 3.01074 14.1259C1.95774 12.9211 1.29742 11.5636 1.07227 9.92573C0.449759 5.21999 3.9282 1.37618 8.28027 1.02827Z" stroke="var(--stroke-0, #002E5D)" stroke-width="2"/>
</g>
</svg>
