<svg preserveAspectRatio="none" width="100%" height="100%" overflow="visible" style="display: block;" viewBox="0 0 22 22" fill="none" xmlns="http://www.w3.org/2000/svg">
<g id="decimal-star">
<path id="border-star" fill-rule="evenodd" clip-rule="evenodd" d="M20.8732 7.36876L14.8654 6.45363L12.1802 0.765283C11.6991 -0.24864 10.3051 -0.261528 9.81981 0.765283L7.13458 6.45363L1.12675 7.36876C0.0493724 7.53202 -0.382414 8.91974 0.398897 9.71456L4.74543 14.1398L3.71739 20.391C3.53236 21.5209 4.6714 22.3674 5.62543 21.8388L11 18.8872L16.3746 21.8388C17.3287 22.363 18.4677 21.5209 18.2825 20.391L17.2546 14.1398L21.6011 9.71456C22.3824 8.91974 21.9507 7.53202 20.8732 7.36876ZM15.103 18.0031L14.3145 13.2087L17.7809 9.67945L13.0037 8.95177L11 4.70722L8.99633 8.95177L4.21907 9.67945L7.68549 13.2087L6.89703 18.0031L11 15.7498L15.103 18.0031Z" fill="var(--fill-0, #FFD000)"/>
<g id="Clip path group">
<mask id="mask0_12714_41727" style="mask-type:luminance" maskUnits="userSpaceOnUse" x="3" y="4" width="16" height="15">
<g id="clip-1jhga8jeh0841b0b1fe4dc5">
<path id="Vector" d="M18.3082 4.3208H3.64153V18.3708H18.3082V4.3208Z" fill="var(--fill-0, white)"/>
</g>
</mask>
<g mask="url(#mask0_12714_41727)">
<path id="inner" d="M15.336 18.225L14.5039 13.2737L18.1619 9.62913L13.1207 8.87765L11.0063 4.4943L8.89188 8.87765L3.85062 9.62913L7.50861 13.2737L6.67658 18.225L11.0063 15.898L15.336 18.225Z" fill="var(--fill-0, #FFD000)"/>
</g>
</g>
</g>
</svg>
