<svg preserveAspectRatio="xMidYMid meet" width="100%" height="100%" overflow="visible" style="display: block;" viewBox="0 0 21.8723 20.0006" fill="none" xmlns="http://www.w3.org/2000/svg">
<path id="Icon" d="M16.9461 13.8369C18.402 14.5683 19.6503 15.742 20.5614 17.2096C20.7418 17.5003 20.832 17.6456 20.8632 17.8468C20.9266 18.2558 20.6469 18.7585 20.2661 18.9204C20.0786 19 19.8678 19 19.4461 19M14.9461 9.53224C16.4279 8.79589 17.4461 7.26686 17.4461 5.5C17.4461 3.73314 16.4279 2.20411 14.9461 1.46776M12.9461 5.5C12.9461 7.98528 10.9314 10 8.44614 10C5.96085 10 3.94614 7.98528 3.94614 5.5C3.94614 3.01472 5.96085 1 8.44614 1C10.9314 1 12.9461 3.01472 12.9461 5.5ZM1.50537 16.9383C3.09967 14.5446 5.61551 13 8.44614 13C11.2768 13 13.7926 14.5446 15.3869 16.9383C15.7362 17.4628 15.9108 17.725 15.8907 18.0599C15.875 18.3207 15.7041 18.64 15.4957 18.7976C15.2281 19 14.86 19 14.1238 19H2.76849C2.03231 19 1.66421 19 1.39657 18.7976C1.18818 18.64 1.01722 18.3207 1.00157 18.0599C0.981464 17.725 1.1561 17.4628 1.50537 16.9383Z" stroke="var(--stroke-0, #7C7C75)" stroke-width="2" stroke-linecap="round" stroke-linejoin="round"/>
</svg>
