<svg width="215" height="88" viewBox="0 0 215 88" fill="none" xmlns="http://www.w3.org/2000/svg">

<path d="M67.4 18.3H37.1C35.7745 18.3 34.7 19.3745 34.7 20.7V48.9C34.7 50.2255 35.7745 51.3 37.1 51.3H67.4C68.7255 51.3 69.8 50.2255 69.8 48.9V20.7C69.8 19.3745 68.7255 18.3 67.4 18.3Z" fill="#D51223"/>
<path d="M55.5 23.8H48.9V45.9H55.5V23.8Z" fill="white"/>
<path d="M63.2 31.6H41.1V38.2H63.2V31.6Z" fill="white"/>
<path d="M107.3 16.6H104.5V15.3H111.5V16.6H108.7V23.7H107.2V16.6H107.3Z" fill="#878787"/>
<path d="M114 14.8H115.4V18.6C115.9 18.2 116.5 17.9 117.3 17.9C118.1 17.9 118.5 18.1 118.8 18.5C119.1 18.9 119.3 19.3 119.3 20.2V23.8H117.9V20.5C117.9 20 117.9 19.7 117.7 19.5C117.5 19.3 117.3 19.2 117 19.2C116.4 19.2 115.9 19.5 115.5 19.9V23.8H114.1V14.9L114 14.8Z" fill="#878787"/>
<path d="M123.4 21.2C123.6 22.2 124.3 22.6 125.3 22.6C126.3 22.6 126.7 22.3 127.3 21.9V23.2C126.8 23.5 125.9 23.7 125.2 23.7C123.4 23.7 122 22.5 122 20.7C122 18.9 123.4 17.7 124.9 17.7C126.4 17.7 127.6 18.7 127.6 20.5C127.6 22.3 127.6 20.9 127.6 21.1H123.5L123.4 21.2ZM126.3 20.3C126.2 19.4 125.6 19 124.9 19C124.2 19 123.6 19.4 123.4 20.3H126.3Z" fill="#878787"/>
<path d="M35.4 58.2H36.9V63H43.1V58.2H44.6V69.6H43.1V64.3H36.9V69.6H35.4V58.2Z" fill="#878787"/>
<path d="M51.8 61.7C54.2 61.7 55.9 63.5 55.9 65.8C55.9 68.1 54.1 69.9 51.8 69.9C49.5 69.9 47.7 68.1 47.7 65.8C47.7 63.5 49.5 61.7 51.8 61.7ZM51.8 68.5C53.3 68.5 54.5 67.3 54.5 65.7C54.5 64.1 53.4 62.9 51.8 62.9C50.2 62.9 49.1 64.1 49.1 65.7C49.1 67.3 50.2 68.5 51.8 68.5Z" fill="#878787"/>
<path d="M59 57.6H60.4V69.7H59V57.6Z" fill="#878787"/>
<path d="M64.7 58.2C65.3 58.2 65.7 58.6 65.7 59.2C65.7 59.8 65.3 60.2 64.7 60.2C64.1 60.2 63.7 59.8 63.7 59.2C63.7 58.6 64.1 58.2 64.7 58.2ZM64 61.9H65.4V69.7H64V61.9Z" fill="#878787"/>
<path d="M72.7 61.7C73.5 61.7 74.1 61.9 74.6 62.1V57.6H76V69.7H74.6V69.2C74.1 69.5 73.4 69.8 72.4 69.8C70.3 69.8 68.6 68.3 68.6 65.9C68.6 63.5 70.3 61.7 72.7 61.7ZM72.5 68.6C73.3 68.6 74 68.3 74.5 67.9V63.5C74 63.2 73.3 63 72.6 63C71 63 69.9 64.2 69.9 65.8C69.9 67.4 70.9 68.6 72.5 68.6Z" fill="#878787"/>
<path d="M79.9 69.3C79.4 68.9 79.1 68.3 79.1 67.6C79.1 66.9 79.5 66.1 80.1 65.7C80.7 65.3 81.5 65.2 82.3 65.2C83.1 65.2 83.5 65.2 84 65.4V64.8C84 64.2 83.9 63.8 83.6 63.5C83.3 63.2 82.8 63.1 82.2 63.1C81.2 63.1 80.4 63.4 79.8 63.9V62.5C80.4 62.1 81.2 61.8 82.4 61.8C83.6 61.8 84.2 62 84.7 62.5C85.2 62.9 85.5 63.6 85.5 64.5V67.8C85.5 68.3 85.7 68.6 86.1 68.6C86.5 68.6 86.4 68.6 86.6 68.5V69.7C86.4 69.7 86.1 69.8 85.8 69.8C85.2 69.8 84.6 69.5 84.3 69C83.9 69.4 83 69.9 81.9 69.9C80.8 69.9 80.6 69.7 80.1 69.3H79.9ZM83.9 67.9V66.4C83.5 66.3 82.9 66.2 82.4 66.2C81.4 66.2 80.5 66.5 80.5 67.4C80.5 68.3 81.1 68.5 82 68.5C82.9 68.5 83.5 68.2 83.9 67.8V67.9Z" fill="#878787"/>
<path d="M88.8 73.1L90.9 68.8L87.7 61.9H89.3L90.7 64.8C91.1 65.6 91.4 66.4 91.8 67.1C92.1 66.3 92.5 65.6 92.9 64.8L94.3 61.9H95.8L90.5 73.2H89L88.8 73.1Z" fill="#878787"/>
<path d="M108.7 58C109.9 58 111 58.3 111.9 58.8V60.4C111 59.8 109.9 59.3 108.7 59.3C106.1 59.3 104.3 61.3 104.3 63.8C104.3 66.3 106.1 68.3 108.9 68.3C111.7 68.3 111.3 67.9 112.2 67.1V68.8C111.3 69.4 110 69.7 108.8 69.7C105.3 69.7 102.8 67.2 102.8 63.8C102.8 60.4 105.2 57.9 108.8 57.9L108.7 58Z" fill="#878787"/>
<path d="M118.7 61.7C121.1 61.7 122.8 63.5 122.8 65.8C122.8 68.1 121 69.9 118.7 69.9C116.4 69.9 114.6 68.1 114.6 65.8C114.6 63.5 116.4 61.7 118.7 61.7ZM118.7 68.5C120.2 68.5 121.4 67.3 121.4 65.7C121.4 64.1 120.3 62.9 118.7 62.9C117.1 62.9 116 64.1 116 65.7C116 67.3 117.1 68.5 118.7 68.5Z" fill="#878787"/>
<path d="M136.6 65.1C136.6 64.4 136.5 63.9 136.2 63.6C135.9 63.3 135.4 63.1 135 63.1C134.1 63.1 133.2 63.7 132.6 64.3C132.6 64.5 132.6 64.7 132.6 64.9V69.8H131.2V65.2C131.2 64.4 131.2 64 130.8 63.7C130.5 63.3 130.1 63.2 129.6 63.2C128.7 63.2 127.8 63.8 127.2 64.4V69.8H125.8V62H127.2V62.9C127.8 62.3 128.8 61.8 129.8 61.8C130.8 61.8 131.7 62.2 132.2 63.1C133.1 62.2 134.1 61.8 135.2 61.8C136.3 61.8 136.8 62.1 137.2 62.6C137.7 63.1 137.8 63.8 137.8 64.9V69.8H136.4V65.2L136.6 65.1Z" fill="#878787"/>
<path d="M143.1 73.1H141.7V61.8H143.1V62.3C143.6 61.9 144.4 61.6 145.3 61.6C147.4 61.6 149.1 63.2 149.1 65.6C149.1 68 147.3 69.7 145 69.7C142.7 69.7 143.6 69.5 143.1 69.3V73V73.1ZM145 68.6C146.5 68.6 147.6 67.5 147.6 65.9C147.6 64.3 146.6 63 145 63C143.4 63 143.5 63.3 143 63.7V68C143.5 68.3 144.2 68.5 145 68.5V68.6Z" fill="#878787"/>
<path d="M152.4 69.3C151.9 68.9 151.6 68.3 151.6 67.6C151.6 66.9 152 66.1 152.6 65.7C153.2 65.3 154 65.2 154.8 65.2C155.6 65.2 156 65.2 156.5 65.4V64.8C156.5 64.2 156.4 63.8 156.1 63.5C155.8 63.2 155.3 63.1 154.7 63.1C153.7 63.1 152.9 63.4 152.3 63.9V62.5C152.9 62.1 153.7 61.8 154.9 61.8C156.1 61.8 156.7 62 157.2 62.5C157.7 62.9 158 63.6 158 64.5V67.8C158 68.3 158.2 68.6 158.6 68.6C159 68.6 158.9 68.6 159.1 68.5V69.7C158.9 69.7 158.6 69.8 158.3 69.8C157.7 69.8 157.1 69.5 156.8 69C156.4 69.4 155.5 69.9 154.4 69.9C153.3 69.9 153.1 69.7 152.6 69.3H152.4ZM156.5 67.9V66.4C156.1 66.3 155.5 66.2 155 66.2C154 66.2 153.1 66.5 153.1 67.4C153.1 68.3 153.7 68.5 154.6 68.5C155.5 68.5 156.1 68.2 156.5 67.8V67.9Z" fill="#878787"/>
<path d="M161.7 61.9H163.1V62.9C163.8 62.2 164.7 61.7 165.8 61.7C166.9 61.7 167.4 62 167.9 62.6C168.3 63.1 168.5 63.7 168.5 64.9V69.7H167.1V65.2C167.1 64.4 167 63.9 166.7 63.6C166.4 63.2 165.9 63.1 165.5 63.1C164.6 63.1 163.6 63.7 163.1 64.4V69.7H161.7V61.9Z" fill="#878787"/>
<path d="M171.9 73.1L174 68.8L170.8 61.9H172.4L173.8 64.8C174.2 65.6 174.5 66.4 174.9 67.1C175.2 66.3 175.6 65.6 176 64.8L177.4 61.9H178.9L173.6 73.2H172.1L171.9 73.1Z" fill="#878787"/>
<path d="M88.8 48.7C93 48.7 95.8 46.7 95.8 42.9C95.8 39.1 95 39.3 92.9 38.2C90.8 37.1 86.6 36.4 84 35.1C81.4 33.8 79.8 31.8 79.8 28.5C79.8 23.6 83.4 20.7 88.9 20.7C94.4 20.7 94.7 21.4 96.9 22.8V25.5C94.5 23.8 91.4 23 88.8 23C84.8 23 82.2 24.9 82.2 28.3C82.2 31.7 83.3 32.1 85.5 33.1C87.8 34.2 92.1 34.9 94.6 36.3C97 37.7 98.3 39.8 98.3 42.8C98.3 48 94.5 51 88.8 51C83.1 51 82.4 50.1 79.9 48.4V45.6C82.5 47.7 86 48.7 88.8 48.7Z" fill="#D51223"/>
<path d="M100.9 30.6H103.4L106.9 40.6C107.7 42.9 108.5 45.2 109.2 47.5C110 45.2 110.8 42.9 111.6 40.6L115.2 30.6H116.8L120.4 40.6C121.2 42.9 122 45.2 122.8 47.5C123.5 45.2 124.3 42.9 125.1 40.6L128.6 30.6H131.1L124 50.6H121.7L118.1 40.8C117.4 38.8 116.6 36.4 115.9 34.4C115.2 36.4 114.4 38.7 113.7 40.8L110.2 50.6H107.8L100.7 30.6H100.9Z" fill="#D51223"/>
<path d="M135.6 23.6C135.6 22.6 136.4 21.7 137.4 21.7C138.4 21.7 139.3 22.6 139.3 23.6C139.3 24.6 138.5 25.4 137.4 25.4C136.3 25.4 135.6 24.6 135.6 23.6ZM136.3 30.6H138.7V50.6H136.3V30.6Z" fill="#D51223"/>
<path d="M144.6 49.2V46.7C146.8 48.2 149.6 48.9 152.3 48.9C155 48.9 157.9 47.7 157.9 45.3C157.9 42.9 157 42.8 155.1 42.2C153.3 41.6 150.1 41.4 147.9 40.6C145.8 39.8 144.5 38.3 144.5 35.9C144.5 32.2 147.7 30.1 152.2 30.1C156.7 30.1 157.5 30.8 159.3 31.8V34.2C157.2 33 154.6 32.3 152.2 32.3C149.8 32.3 147 33.4 147 35.7C147 38 148 38.1 149.9 38.6C151.9 39.1 154.9 39.4 156.9 40.2C158.9 41 160.3 42.4 160.3 45C160.3 48.9 156.8 51 152.2 51C147.6 51 146.6 50.3 144.6 49.1V49.2Z" fill="#D51223"/>
<path d="M164.6 49.2V46.7C166.8 48.2 169.6 48.9 172.3 48.9C175 48.9 177.9 47.7 177.9 45.3C177.9 42.9 177 42.8 175.1 42.2C173.3 41.6 170.1 41.4 167.9 40.6C165.8 39.8 164.5 38.3 164.5 35.9C164.5 32.2 167.7 30.1 172.2 30.1C176.7 30.1 177.5 30.8 179.3 31.8V34.2C177.2 33 174.6 32.3 172.2 32.3C169.8 32.3 167 33.4 167 35.7C167 38 168 38.1 169.9 38.6C171.9 39.1 174.9 39.4 176.9 40.2C178.9 41 180.3 42.4 180.3 45C180.3 48.9 176.8 51 172.2 51C167.6 51 166.6 50.3 164.6 49.1V49.2Z" fill="#D51223"/>
</svg>
