<svg width="80" height="80" viewBox="0 0 80 80" fill="none" xmlns="http://www.w3.org/2000/svg">
<g clip-path="url(#clip0_0_4)">
<path d="M41.8136 36.3184C46.4003 45.3851 55.5736 45.5451 55.5736 45.5451L60.2669 19.0917L48.6403 17.0117C48.6403 16.9584 35.5203 23.7317 41.8136 36.3184Z" fill="#002E5D"/>
<path d="M42.8269 49.4923C42.1869 49.3856 41.6536 49.3856 41.2269 49.599C40.8002 49.759 40.5336 50.0789 40.4802 50.5056C40.4269 50.9323 40.5336 51.3056 40.8536 51.6256C41.1736 51.9456 41.7069 52.159 42.3469 52.2656C42.9869 52.3723 43.5202 52.3723 43.9469 52.159C44.3736 51.999 44.6402 51.679 44.6936 51.2523C44.7469 50.8256 44.6402 50.4523 44.3202 50.1323C44.0002 49.8123 43.4669 49.599 42.8269 49.4923Z" fill="#002E5D"/>
<path d="M55.253 47.4134C55.253 47.4134 44.7463 48.6934 37.0663 40.6934C29.3863 32.6934 29.333 23.1467 34.133 14.4534L27.733 13.3334L20.5863 53.8134L53.0663 59.52L55.253 47.4134ZM29.5463 50.56L29.173 49.6534L26.293 49.12L25.653 49.8134L23.9463 49.4934L27.413 46.08L29.2263 46.4L31.253 50.7734L29.5463 50.56ZM38.453 48.8534L36.1597 48.4267L35.573 51.6267L33.9197 51.3067L34.5063 48.1067L32.1597 47.68L32.2663 46.9867L38.5063 48.1067L38.453 48.8534ZM46.293 51.52C46.1863 52.2134 45.7063 52.6934 44.853 52.9067C44.213 53.12 43.3597 53.12 42.2397 52.9067C41.1197 52.6934 40.3197 52.4267 39.7863 52C39.093 51.4667 38.773 50.88 38.8797 50.1867C38.9863 49.4934 39.5197 49.0134 40.3197 48.8C40.9597 48.5867 41.813 48.5867 42.933 48.8C44.053 49.0134 44.853 49.28 45.3863 49.7067C46.133 50.1867 46.453 50.8267 46.293 51.52ZM52.6397 54.6667L47.1997 53.7067L47.893 49.8134L49.493 50.08L48.9063 53.28L52.7463 53.9734L52.6397 54.6667Z" fill="#002E5D"/>
<path d="M26.8802 48.5323L28.8535 48.9056L28.1602 47.1989L26.8802 48.5323Z" fill="#002E5D"/>
<path d="M46.9336 0.586093C25.2269 -3.20057 4.42689 11.3594 0.586886 33.0661C-3.19978 54.7728 11.3602 75.5728 33.0669 79.4128C54.7736 83.2528 75.5736 68.6928 79.4136 46.9861C79.8402 44.6394 80.0002 42.2928 80.0002 39.9994C80.0002 20.9594 66.3469 4.05276 46.9336 0.586093ZM76.8536 46.5061C73.2802 66.8261 53.8136 80.4261 33.4936 76.8528C13.1736 73.2794 -0.426447 53.8128 3.14689 33.4928C6.72022 13.1728 26.1869 -0.427241 46.5069 3.14609C66.8269 6.71943 80.4269 26.1861 76.8536 46.5061Z" fill="#002E5D"/>
<path d="M12.8004 50.612C14.1337 50.2387 14.5604 49.172 14.0804 47.5187L13.3337 44.6387L5.22705 46.8254C5.33372 47.092 5.44038 47.412 5.54705 47.6787C5.60038 47.9987 5.65372 48.2654 5.70705 48.5854L9.28038 47.6254C9.86705 49.7587 10.7204 51.1987 12.8004 50.612ZM13.1737 46.5587L13.3871 47.3054C13.5471 47.9454 13.0671 48.5854 12.1071 48.852C11.3604 49.0654 10.6137 48.9587 10.1871 48.212C10.0804 47.9987 9.97372 47.732 9.86705 47.4654L13.1737 46.5587Z" fill="#002E5D"/>
<path d="M16.48 57.0666C17.1733 56.6399 17.4933 56.0532 17.44 55.2532C17.3867 54.6665 16.96 53.9199 16.64 53.3865L15.3067 51.1999L8.05334 55.4665C8.21334 55.7332 8.42667 55.9466 8.58668 56.2132C8.74668 56.4799 8.85334 56.7466 9.01334 57.0666L12.4267 55.0932L12.48 55.1465C12.2133 55.6265 11.8933 56.2132 11.7333 56.5332L10.24 59.0932C10.4533 59.4132 10.6667 59.6799 10.88 59.9999C11.0933 60.3199 11.2533 60.6399 11.4133 61.0132L11.84 60.2132C12.48 58.9865 13.0667 57.7599 13.7067 56.5865C14.4 57.4399 15.4133 57.7066 16.48 57.0666ZM12.8533 54.7732L15.68 53.1199C16.0533 53.7599 16.5867 54.5065 15.84 55.1999C15.6267 55.3599 15.4667 55.4665 15.36 55.5732C14.24 56.1599 13.3867 55.9465 12.8533 54.7732Z" fill="#002E5D"/>
<path d="M22.5601 60.2117C20.2668 58.185 17.6001 58.505 16.0001 60.3717C14.1868 62.4517 14.5068 64.8517 16.5334 66.665C18.8268 68.6383 21.5468 68.3183 23.0934 66.505C24.3201 65.065 25.1734 62.505 22.5601 60.2117ZM21.7068 65.0117C20.3734 66.5583 18.5068 67.4117 17.0668 66.185C15.6801 64.9583 16.2668 63.1983 17.2801 62.025C19.0934 59.945 20.6934 59.6783 21.9734 60.7983C23.3601 61.9717 22.7201 63.785 21.7068 65.0117Z" fill="#002E5D"/>
<path d="M26.3465 63.467C26.2932 63.627 26.2399 63.787 26.1865 63.947C26.1332 64.107 26.0265 64.267 25.9199 64.427C26.5599 64.587 27.3065 64.8537 28.1065 65.1737L25.1199 72.107C25.4399 72.2137 25.7065 72.3204 25.9732 72.427C26.2399 72.5337 26.5065 72.6937 26.7732 72.8537L29.7599 65.9204C30.4532 66.2404 31.0932 66.5604 31.6799 66.9337C31.7332 66.7737 31.7865 66.6137 31.8399 66.4004C31.8932 66.2404 31.9999 66.0804 32.1065 65.9737L26.3465 63.467Z" fill="#002E5D"/>
<path d="M32.0003 74.4525L36.6403 75.2525C36.6403 75.0925 36.6403 74.8791 36.6937 74.7191C36.747 74.5591 36.8003 74.3991 36.8537 74.1858C36.107 74.1858 35.2537 74.0791 34.027 73.8658L34.5603 70.7725L35.8403 70.9858C36.3737 71.0925 36.8537 71.1991 37.3337 71.3591C37.3337 71.1991 37.3337 70.9858 37.3337 70.8258C37.387 70.6658 37.4403 70.4525 37.4937 70.2925C37.0137 70.2925 36.5337 70.2391 36.0003 70.1325L34.7203 69.9191L35.147 67.3058C36.3737 67.4658 37.1737 67.7325 37.9203 67.9458C37.9203 67.7858 37.9203 67.5725 37.9203 67.4125C37.9737 67.2525 38.027 67.0391 38.0803 66.8791L33.4937 66.0791L32.0003 74.4525Z" fill="#002E5D"/>
<path d="M44.5339 74.5054C42.6673 74.6654 41.4939 73.332 41.2806 71.252C41.1206 69.4387 41.7606 67.412 43.7873 67.252C44.5873 67.1987 45.3873 67.572 45.9206 68.1587H46.0806C46.1339 67.732 46.1873 67.3054 46.2406 66.8787C45.4939 66.5587 44.4806 66.452 43.6806 66.5054C41.0139 66.772 38.9339 68.4254 39.2539 71.6254C39.5206 74.132 41.6539 75.572 44.2673 75.3054C45.0673 75.252 45.9206 74.9854 46.6139 74.5587L46.7739 73.492L46.6139 73.4387C46.1339 73.972 45.3339 74.452 44.5339 74.5054Z" fill="#002E5D"/>
<path d="M53.1203 64.9053C53.0136 64.7453 52.9603 64.5853 52.8536 64.4253C52.8003 64.2653 52.747 64.1053 52.747 63.9453L46.8803 66.2387C46.987 66.3987 47.0403 66.5587 47.147 66.7187C47.2003 66.8787 47.2536 67.0387 47.307 67.252C47.8403 66.932 48.5336 66.5587 49.387 66.2387L52.1603 73.2787C52.427 73.172 52.6936 73.012 53.0136 72.9053C53.2803 72.7987 53.6003 72.692 53.9203 72.6387L51.147 65.5987C51.7336 65.2787 52.427 65.1187 53.1203 64.9053Z" fill="#002E5D"/>
<path d="M61.8136 66.5056C61.2803 67.0389 60.5869 67.5723 59.5736 68.2656L57.7603 65.7056L58.8269 64.9589C59.2536 64.6389 59.7336 64.3723 60.1069 64.1589C60.0003 64.0523 59.8403 63.8922 59.7336 63.7856C59.6269 63.6256 59.5736 63.4656 59.4669 63.3056C59.1469 63.6256 58.7736 63.9456 58.2936 64.2656L57.2269 65.0123L55.6803 62.8789C56.6936 62.1323 57.4403 61.7589 58.0803 61.3856C57.9736 61.2789 57.8136 61.1189 57.7069 61.0122C57.6003 60.8522 57.5469 60.6922 57.4403 60.5322L53.6003 63.2523L58.4003 70.0789L62.2403 67.3589C62.1336 67.2523 61.9736 67.0922 61.8669 66.9856C61.9736 66.8256 61.9203 66.6656 61.8136 66.5056Z" fill="#002E5D"/>
<path d="M61.4403 56.3192L58.8269 59.6258L65.3869 64.7992L67.5203 62.0792C69.0669 60.1058 69.0136 57.5458 66.827 55.8392C65.2803 54.6125 63.1469 54.2925 61.4403 56.3192ZM66.6136 62.0792L65.9736 62.8792L60.5336 58.5592L61.2803 57.5992C62.3469 56.2125 63.7336 55.9458 65.547 57.3858C67.8403 59.2525 67.6803 60.7458 66.6136 62.0792Z" fill="#002E5D"/>
</g>
<defs>
<clipPath id="clip0_0_4">
<rect width="80" height="80" fill="white"/>
</clipPath>
</defs>
</svg>
