<svg width="80" height="80" viewBox="0 0 80 80" fill="none" xmlns="http://www.w3.org/2000/svg">
<path d="M23.1818 42.8211C21.1526 42.7178 19.2418 42.965 17.3234 42.4097C10.7645 40.5113 6.39187 34.7876 6.32579 27.8263C6.26562 21.4884 10.812 15.4286 17.0477 13.5922C18.7241 13.0985 20.464 12.9421 22.2089 12.9395C28.6843 12.9296 35.1597 12.9349 41.6351 12.9346C42.045 12.9345 42.4549 12.9346 42.8648 12.9346C42.9235 12.8457 42.9822 12.7568 43.0409 12.668C42.2992 11.9105 41.5692 11.1411 40.8111 10.4004C40.404 10.0026 39.9499 9.64142 39.706 9.1187C39.3238 8.29977 39.2883 7.49306 40.0496 6.8511C40.8443 6.18095 41.659 6.23515 42.3863 6.95396C44.5662 9.10872 46.7403 11.2698 48.8907 13.454C49.6899 14.2658 49.7456 15.1258 48.9253 15.9747C46.7423 18.2339 44.5123 20.4494 42.2465 22.6255C41.5657 23.2792 40.7087 23.2042 39.9814 22.5708C39.3238 21.998 39.2277 20.9272 39.8521 20.214C40.648 19.3049 41.5478 18.4875 42.3815 17.6104C42.6279 17.3511 43.0111 17.1869 43.0839 16.6977C42.8918 16.6674 42.717 16.6156 42.5421 16.6157C35.2717 16.6222 28.0012 16.6447 20.7308 16.6403C15.4397 16.637 11.0414 20.9615 10.0952 25.7185C8.89729 31.7408 12.8364 37.8205 18.8277 39.1393C19.5561 39.2996 20.3329 39.2757 21.0873 39.2763C32.8263 39.2857 44.5653 39.2831 56.3043 39.2926C56.8679 39.2931 57.4437 39.3226 57.9924 39.4394C58.9445 39.6423 59.4093 40.3314 59.3537 41.2602C59.2963 42.2207 58.7006 42.7565 57.7168 42.8007C57.3388 42.8177 56.9597 42.8156 56.5811 42.8156C45.4859 42.8179 34.3906 42.8194 23.1818 42.8211Z" fill="#002E5D"/>
<path d="M12.8718 74.682C8.50271 72.3236 6.27546 68.6695 6.36749 63.8458C6.45593 59.2103 8.84645 55.7547 12.9798 53.7611C19.5323 50.6007 27.0212 54.1313 28.9752 60.7104C29.2866 61.759 29.598 62.6373 31.0588 62.5044C32.1713 62.4031 32.9262 63.2666 32.937 64.2167C32.9484 65.2238 32.1914 65.9972 30.9622 65.9487C29.8713 65.9057 29.4994 66.3197 29.2081 67.3375C27.8083 72.228 24.0036 75.4006 18.9996 75.8359C16.9142 76.0172 14.8548 75.6928 12.8718 74.682ZM23.588 70.0666C26.3257 67.407 26.6396 64.2216 25.4959 61.1152C24.3299 57.9484 20.1022 55.1327 15.8211 56.3641C12.4368 57.3375 9.42117 61.2864 9.879 64.7712C10.3 67.9758 11.8889 70.4519 14.9024 71.6709C17.9767 72.9145 20.9188 72.4273 23.588 70.0666Z" fill="#002E5D"/>
<path d="M63.4368 22.0671C60.2537 19.9854 58.9091 17.1231 59.2397 13.4139C59.4913 10.5904 62.3529 7.32604 65.3318 6.59868C69.8547 5.49433 74.1848 7.86589 75.4995 12.3182C76.3554 15.2165 75.8742 17.9555 73.7734 20.2443C71.5401 22.6774 68.7665 23.5221 65.5366 22.818C64.8356 22.6653 64.1388 22.4787 63.4368 22.0671ZM69.4093 19.1194C70.6245 18.4971 71.6204 17.6596 72.0331 16.3017C72.619 14.3736 72.2989 12.654 70.7866 11.2346C69.4103 9.94293 67.3321 9.52722 65.656 10.353C63.8866 11.2247 62.7451 12.5701 62.7764 14.6993C62.8265 18.1074 65.7946 20.1864 69.4093 19.1194Z" fill="#002E5D"/>
<path d="M71.1635 42.4512C72.0402 42.4458 72.6256 42.8189 73.0739 43.4307C73.8263 44.4574 74.7302 45.4074 74.8559 46.7664C74.9383 47.658 74.4249 48.1706 73.685 48.5126C72.9273 48.8629 72.3153 48.4947 71.892 47.9531C71.1511 47.0051 70.4618 46.0066 69.8503 44.9705C69.2459 43.9464 69.7774 42.939 71.1635 42.4512Z" fill="#002E5D"/>
<path d="M70.9777 60.5202C72.3791 61.5094 72.4386 62.7197 71.1911 63.6993C70.2337 64.4512 69.1701 65.0223 68.0071 65.3913C67.1558 65.6614 66.5316 65.2989 66.0743 64.6064C65.6269 63.9289 65.5829 63.1487 66.2081 62.6452C67.4077 61.679 68.8007 60.9991 70.2294 60.4196C70.4123 60.3455 70.6707 60.4575 70.9777 60.5202Z" fill="#002E5D"/>
<path d="M75.7648 52.981C76.1495 54.3169 75.817 55.5518 75.6444 56.7657C75.4869 57.8734 74.5941 58.4505 73.6265 58.2925C72.5165 58.1113 72.1416 57.3617 72.2014 56.3359C72.2626 55.2856 72.3373 54.2343 72.459 53.1896C72.5584 52.3364 73.1226 51.8163 73.9345 51.6939C74.8391 51.5577 75.4208 52.0683 75.7648 52.981Z" fill="#002E5D"/>
<path d="M62.1936 65.3402C60.4779 66.4223 58.7084 66.0571 56.9861 65.7506C56.2869 65.6262 55.8765 64.9276 55.8941 64.1891C55.9128 63.402 56.3737 62.7816 57.1404 62.6149C58.5495 62.3086 60.0036 62.2494 61.4 62.628C62.6063 62.9551 62.8748 63.9541 62.1936 65.3402Z" fill="#002E5D"/>
<path d="M52.7399 64.2958C52.5254 65.5075 51.7661 65.947 50.7107 65.9745C49.8052 65.998 48.8974 66.0082 47.9927 65.9709C46.816 65.9224 46.1113 65.2916 46.0646 64.3165C46.0166 63.3166 46.6463 62.5869 47.8109 62.4914C48.8605 62.4054 49.9261 62.4126 50.9777 62.483C52.0016 62.5516 52.6372 63.138 52.7399 64.2958Z" fill="#002E5D"/>
<path d="M36.2592 63.6025C36.6656 62.8169 37.279 62.486 38.0439 62.462C38.986 62.4325 39.9325 62.4084 40.8722 62.4642C42.1128 62.5378 42.8027 63.2177 42.7948 64.2463C42.7873 65.243 42.0256 65.9335 40.8237 65.9735C39.8816 66.0049 38.9352 66.0201 37.9948 65.9686C36.6388 65.8943 36.0235 65.0665 36.2592 63.6025Z" fill="#002E5D"/>
<path d="M67.1518 42.0549C66.2245 43.0247 64.2676 43.2338 63.2632 42.5483C62.453 41.9954 62.2957 40.6727 62.9533 39.9424C63.6068 39.2168 65.247 39.0654 66.3572 39.6613C67.3097 40.1726 67.5223 40.9818 67.1518 42.0549Z" fill="#002E5D"/>
</svg>
