<svg width="80" height="80" viewBox="0 0 80 80" fill="none" xmlns="http://www.w3.org/2000/svg">
<path d="M41.8484 32.8638C41.7588 29.6355 41.3058 26.5276 42.1478 23.4034C43.9834 16.5924 49.7702 11.7029 56.7875 11.0314C64.9725 10.2482 71.9234 15.476 74.185 22.1211C75.1609 24.9887 75.1877 27.9096 74.988 30.8669C74.7945 33.7337 74.5804 36.5992 74.4008 39.4668C74.2236 42.2973 74.0895 45.1305 73.9114 47.961C73.8635 48.7226 73.7154 49.5553 73.1968 50.0814C71.8309 51.4669 71.8934 53.2415 71.6806 54.9402C71.141 59.2489 70.55 63.5544 70.162 67.8776C69.9091 70.6962 69.1221 73.2497 67.2096 75.3232C63.7184 79.1084 59.4236 80.5064 54.4554 78.9046C49.7404 77.3845 47.01 74.0072 46.2831 69.104C45.5733 64.3169 45.3555 59.4785 44.9031 54.6644C44.7508 53.0436 44.8015 51.3918 43.5135 50.0226C42.739 49.1993 42.7215 47.93 42.6599 46.788C42.4196 42.3312 42.1812 37.8743 41.9392 33.4176C41.931 33.2673 41.891 33.1187 41.8484 32.8638ZM51.605 14.6748C46.4055 17.5974 43.6592 22.0308 43.7388 28.0046C43.7905 31.8899 44.2007 35.7693 44.3805 39.6545C44.4816 41.839 46.4019 43.9826 48.6059 43.9979C55.1137 44.0434 61.6222 44.0434 68.13 43.9985C70.2517 43.9839 72.075 42.0857 72.2299 39.9492C72.4401 37.0498 72.7004 34.153 72.8464 31.2504C72.9469 29.2513 73.1569 27.2245 72.8073 25.2444C71.0714 15.411 60.7766 10.2264 51.605 14.6748ZM48.4663 69.6183C49.4941 74.0728 53.3143 77.3382 57.5975 77.4234C63.4233 77.5392 67.7237 73.4795 68.1337 67.6475C68.3451 64.6409 68.8509 61.6561 69.1497 58.6541C69.3463 56.6789 69.7514 54.7186 69.7317 52.7188C65.8359 52.7188 62.0192 52.7203 58.2024 52.7184C54.9107 52.7167 51.6186 52.742 48.3276 52.6936C46.8363 52.6716 46.7726 52.7258 46.9413 54.2294C47.1936 56.4784 47.3426 58.7388 47.5782 60.99C47.8726 63.8027 47.9023 66.6421 48.4663 69.6183ZM50.346 50.6017C56.2831 50.6015 62.2201 50.6064 68.1571 50.5981C69.9725 50.5955 71.2098 49.9095 71.587 48.5476C71.9137 47.368 72.0832 46.1371 71.8806 44.7304C69.8416 46.2832 67.5655 46.1992 65.2942 46.1919C60.5295 46.1765 55.7644 46.1557 51.0002 46.2047C48.8968 46.2264 46.8416 46.1877 45.0091 44.9679C44.9787 44.9477 44.8884 45.0176 44.8576 45.0313C44.8576 45.8407 44.8118 46.6354 44.8668 47.423C44.9981 49.3049 46.2048 50.4847 48.0797 50.5905C48.7583 50.6288 49.4407 50.5999 50.346 50.6017Z" fill="#002E5D"/>
<path d="M10.6328 9.27898C15.1616 3.75523 20.9308 1.63656 27.7592 3.24042C34.6173 4.85123 38.7659 9.39047 40.319 16.276C41.0226 19.395 40.4776 22.5281 40.4186 25.6533C40.3786 27.7682 40.1808 29.8798 40.0803 31.9942C39.9834 34.0346 39.9381 36.0775 39.8353 38.1175C39.7885 39.0467 39.4525 39.9215 38.848 40.6104C38.3044 41.2299 38.1156 41.9302 38.0659 42.6836C37.8097 46.5681 37.6082 50.4564 37.3323 54.3395C37.1505 56.8991 37.2171 59.4922 36.6685 62.0081C35.6106 66.859 31.2443 70.6113 26.3281 71.2409C20.5472 71.9811 14.056 67.6757 13.1258 61.0813C12.3617 55.664 11.7464 50.2258 11.0431 44.7997C10.8806 43.5463 10.8037 42.3021 9.77667 41.2774C8.86718 40.3699 8.73658 39.023 8.62707 37.7783C8.27277 33.7512 7.97733 29.719 7.64074 25.6903C7.47405 23.6951 7.21808 21.7098 7.18251 19.7015C7.11419 15.8442 8.28683 12.4141 10.6328 9.27898ZM36.6201 39.9343C38.1348 38.5514 37.8247 36.7827 37.8668 34.8925C36.7948 35.4272 35.9669 35.9034 35.0096 36.0138C31.6218 36.4047 28.2198 36.4661 24.8145 36.4298C24.2452 36.4238 23.8808 36.1046 23.8198 35.539C23.752 34.9093 24.0832 34.5324 24.7018 34.4335C25.074 34.374 25.4521 34.3358 25.8288 34.3216C28.5891 34.2181 31.3498 34.1259 34.1102 34.0246C36.3109 33.9438 38.077 32.1324 38.1112 29.9673C38.1273 28.9469 38.2571 27.9269 38.2475 26.9076C38.2177 23.7369 38.8268 20.5819 38.373 17.3977C36.9233 7.22385 25.5236 1.60841 16.6492 6.78702C11.6083 9.72864 9.08047 14.2818 9.23649 20.0667C9.32979 23.526 9.9254 26.9796 10.088 30.4515C10.1712 32.2265 11.0004 33.4153 12.5359 34.2224C13.7132 34.8413 14.966 34.6974 16.2062 34.6863C16.9765 34.6795 17.6297 34.8482 17.6499 35.7337C17.6694 36.5856 16.9612 36.7135 16.2985 36.7968C14.3358 37.0434 12.4831 36.6767 10.7604 35.7073C10.7604 36.3455 10.7499 36.9079 10.7622 37.4698C10.821 40.145 12.0223 41.3484 14.714 41.2816C19.4788 41.1633 24.2423 40.9872 29.006 40.8279C30.9721 40.7622 32.9376 40.6767 34.9034 40.6018C35.4907 40.5794 36.005 40.359 36.6201 39.9343ZM31.9334 66.3654C33.9345 64.4597 34.7862 62.0768 34.9361 59.3624C35.109 56.234 35.3735 53.1107 35.5668 49.9832C35.6996 47.8339 35.7796 45.6812 35.8816 43.53C35.9078 42.9778 35.8591 42.6266 35.0853 42.6785C32.6355 42.8428 30.179 42.9145 27.7244 43.001C23.1152 43.1634 18.5057 43.3215 13.8956 43.4538C13.1712 43.4746 12.979 43.7741 13.065 44.4403C13.7409 49.6773 14.3738 54.9199 15.0807 60.1526C15.63 64.2178 17.6594 67.2549 21.6273 68.6542C25.4161 69.9903 28.8411 69.1724 31.9334 66.3654Z" fill="#002E5D"/>
<path d="M51.0709 32.0922C49.3997 29.6639 49.4463 28.7964 52.0612 27.6452C53.9473 26.8148 55.4174 25.8966 56.6218 24.1437C57.8704 22.3265 58.8344 22.504 60.4045 24.1007C61.0547 24.7619 61.582 25.5053 61.8366 26.3878C62.0214 27.0282 62.3836 27.2432 62.9935 27.1976C63.1437 27.1864 63.2973 27.1952 63.4474 27.2119C66.6309 27.5666 67.4896 29.0463 65.8305 31.7279C64.9248 33.1918 64.3102 34.4571 64.5158 36.3221C64.7797 38.715 63.44 39.5551 61.0096 39.0428C59.6479 38.7558 56.8538 38.7191 55.7897 38.9743C53.9013 39.4271 53.3497 39.1287 52.7888 37.2674C52.6156 36.6928 52.3341 36.0203 52.484 35.5034C52.9314 33.9604 52.1722 33.027 51.0709 32.0922ZM52.6635 30.6552C53.9864 32.0898 55.0224 32.3183 56.4906 31.4242C56.1242 30.7044 55.8398 29.9107 55.3581 29.264C54.8456 28.5757 54.0999 28.9369 53.5091 29.2351C53.019 29.4826 52.0873 29.5262 52.6635 30.6552ZM62.2385 34.9713C61.7815 33.991 61.0373 33.4085 59.915 33.1858C59.8564 33.8697 59.8605 34.4409 59.7463 34.9875C59.624 35.5726 59.4771 36.13 60.1297 36.4742C60.763 36.8083 61.4834 37.2662 62.1455 36.8201C62.7065 36.4421 62.4261 35.7215 62.2385 34.9713ZM58.3755 29.5175C58.5917 29.307 58.8128 29.1014 59.0232 28.8854C60.2885 27.5865 60.074 26.3476 58.4316 25.4534C56.8378 26.7347 56.7634 28.4291 58.3755 29.5175ZM55.6532 33.9528C54.6712 34.2737 54.2058 35.8805 54.8498 36.6855C55.0509 36.9368 55.2703 36.9276 55.5493 36.8733C57.0208 36.5871 57.8982 35.145 57.473 33.6178C56.9301 33.7249 56.3831 33.8328 55.6532 33.9528ZM62.8161 29.3419C61.6791 29.3211 60.8032 29.7206 60.3278 30.8181C62.872 32.4441 63.6575 32.2403 64.3131 29.8213C63.9906 29.3571 63.4781 29.4075 62.8161 29.3419Z" fill="#002E5D"/>
<path d="M32.3232 19.5978C32.0349 21.2147 31.2852 22.5172 30.2935 23.6822C29.9129 24.1294 29.7207 24.561 29.9645 25.123C29.9795 25.1575 29.997 25.1944 29.9987 25.2309C30.0636 26.5738 30.5658 28.2332 29.3673 29.068C28.1531 29.9136 26.4753 29.6314 25.1377 28.9024C24.2127 28.3982 23.4949 28.2191 22.5797 28.8743C21.9026 29.3591 21.0143 29.4114 20.2007 29.5691C19.5015 29.7045 19.0516 29.297 18.753 28.7127C18.1529 27.5382 17.8687 26.2962 18.102 24.9829C18.2249 24.2909 18.131 23.7969 17.4882 23.3466C16.7451 22.8261 16.2497 22.0448 15.804 21.2349C15.2975 20.3146 15.4368 19.6069 16.2265 18.9377C17.2888 18.0376 18.443 17.3411 19.8535 17.2129C20.3704 17.1659 20.6935 17.021 20.8479 16.4897C21.132 15.5117 21.7878 14.7733 22.5234 14.1034C23.6839 13.0466 24.2446 13.0378 25.4793 14.037C26.3245 14.721 26.9785 15.5651 27.2843 16.6005C27.5063 17.3526 27.9334 17.5552 28.6601 17.6318C30.0975 17.7832 31.5105 18.0793 32.3232 19.5978ZM22.7998 18.2298C22.8866 18.9848 23.142 19.6512 23.8031 20.227C24.2579 19.3199 25.4806 19.0212 25.4726 17.9963C25.4648 17.0126 24.8994 16.1775 23.9536 15.6736C23.1863 16.3253 22.724 17.0557 22.7998 18.2298ZM21.4362 20.6759C21.3859 20.5752 21.3362 20.4743 21.2853 20.374C20.6707 19.1628 18.8619 19.072 18.0871 20.202C17.8964 20.4801 18.0036 20.6861 18.1382 20.9214C18.8964 22.2474 20.6592 22.6437 22.0797 21.7646C21.8913 21.451 21.7022 21.1363 21.4362 20.6759ZM25.9292 26.9523C26.5248 27.1862 27.125 27.3864 27.7648 27.2524C28.2682 25.2731 27.3786 23.9236 25.3879 23.6689C25.339 24.3426 25.3707 25.0325 25.2185 25.6791C25.0734 26.2955 25.3045 26.6119 25.9292 26.9523ZM21.7839 26.9396C22.9508 26.307 23.309 25.2937 23.2738 24.0772C23.0804 24.0119 23.0034 23.9561 22.9408 23.9693C22.3138 24.1008 21.6895 24.2447 21.064 24.3831C20.2778 24.5571 19.9397 25.3316 20.1443 26.3457C20.3368 27.2998 20.8689 27.3814 21.7839 26.9396ZM28.5893 22.3352C29.2081 21.7605 29.6172 21.0643 29.8603 20.2775C28.2654 19.1963 26.5398 19.6692 25.862 21.3579C26.7218 21.7039 27.5827 22.0504 28.5893 22.3352Z" fill="#002E5D"/>
<path d="M13.4759 22.9684C13.5505 23.9386 13.6317 24.8029 13.6897 25.6687C13.7382 26.3915 13.5105 26.9951 12.7024 27.056C11.9326 27.1141 11.6444 26.5065 11.577 25.8796C11.3833 24.0788 11.229 22.2729 11.1045 20.4659C11.0582 19.7954 11.3387 19.2551 12.1109 19.2182C12.8978 19.1805 13.1468 19.7442 13.2314 20.3842C13.3403 21.2067 13.3946 22.0364 13.4759 22.9684Z" fill="#002E5D"/>
<path d="M11.9597 29.6408C11.954 29.2105 11.9164 28.8691 11.9574 28.5374C12.0215 28.0186 12.3804 27.7388 12.8736 27.6941C13.3439 27.6514 13.7091 27.9452 13.8177 28.3565C13.9789 28.9674 14.0672 29.6109 14.0826 30.243C14.0965 30.8153 13.7876 31.2796 13.1819 31.3744C12.552 31.4729 12.2037 31.0666 12.0362 30.5166C11.9615 30.271 11.9844 29.9958 11.9597 29.6408Z" fill="#002E5D"/>
</svg>
