<svg width="80" height="80" viewBox="0 0 80 80" fill="none" xmlns="http://www.w3.org/2000/svg">
<path d="M56.4443 60.7776C43.7777 60.7776 31.111 60.7776 18.4443 60.7776" stroke="#002E5D" stroke-width="1.77778" stroke-linecap="round" stroke-linejoin="round"/>
<path d="M56.4443 49.444C43.7777 49.444 31.111 49.444 18.4443 49.444" stroke="#002E5D" stroke-width="1.77778" stroke-linecap="round" stroke-linejoin="round"/>
<path d="M56.4443 46.111C43.7777 46.111 31.111 46.111 18.4443 46.111" stroke="#002E5D" stroke-width="1.77778" stroke-linecap="round" stroke-linejoin="round"/>
<path d="M18.5557 57.5554C31.1483 57.5554 43.7408 57.5554 56.3334 57.5554" stroke="#002E5D" stroke-width="2" stroke-linecap="round" stroke-linejoin="round"/>
<path d="M61.111 36.4444C62.3066 37.8692 62.5418 39.597 62.4113 41.3308C62.279 43.0873 60.5703 43.8615 58.6622 43.3495C55.7398 42.5653 53.5569 40.6432 51.3436 38.7655C50.5271 38.0729 49.7927 37.4703 48.6553 38.0905C48.3984 38.2306 47.9999 38.1111 47.6666 38.1111C37.9258 38.1111 28.1851 38.1111 18.4443 38.1111" stroke="#002E5D" stroke-width="1.77778" stroke-linecap="round" stroke-linejoin="round"/>
<path d="M45.4443 18.5551C45.642 18.1313 45.6953 17.685 45.6678 17.2217C45.5448 15.1495 45.6283 13.0711 45.5444 10.9955C45.4846 9.51648 45.6131 7.96245 45.6536 6.44367C45.7002 4.69709 44.5218 3.46977 42.7776 3.45378C39.2223 3.42117 35.6663 3.42117 32.1111 3.45378C30.3668 3.46977 29.1827 4.69747 29.237 6.44355C29.2831 7.92507 29.47 9.47153 29.3471 10.88C29.0104 14.7383 29.6112 18.6099 29.0058 22.445C28.9953 22.5115 29.0739 22.5922 29.1635 22.7717C29.8619 22.7362 30.3275 22.268 30.7759 21.7757C30.9352 21.6007 31.0681 21.402 31.223 21.2226C32.373 19.8911 34.3989 19.4472 35.7777 20.2218C37.4612 21.1676 38.1633 23.0479 37.5633 24.891C37.3198 25.6391 36.4979 26.0458 36.4443 26.8885" stroke="#002E5D" stroke-width="1.77778" stroke-linecap="round" stroke-linejoin="round"/>
<path d="M46.5554 34.444C46.0318 34.7146 45.4776 34.7851 44.8888 34.7844C36.074 34.7742 27.2592 34.7774 18.4443 34.7774" stroke="#002E5D" stroke-width="1.77778" stroke-linecap="round" stroke-linejoin="round"/>
<path d="M49.4444 67.889C49.0124 68.8768 48.236 69.0301 47.2221 69.0233C40.4816 68.9785 33.7407 68.9832 27.0001 69.0142C25.6319 69.0204 25.1941 68.9596 25.4436 67.2222C25.6036 66.1077 24.7261 64.8595 23.5542 64.8075C22.2647 64.7503 20.9565 64.6316 19.6667 64.8892C18.827 65.057 18.1449 64.6179 18.1287 63.7775C18.1116 62.8912 17.9709 61.9887 18.2256 61.1122C18.4034 60.5 17.9887 59.9418 18.1065 59.3325C18.3782 57.9279 18.1026 56.5186 18.1096 55.1112C18.1166 53.7038 17.9677 52.2776 18.1487 50.8939C18.3581 49.294 18.2263 47.6762 18.215 46.1121C18.1995 43.9748 18.0659 41.8049 18.1672 39.6694C18.2445 38.0394 17.9685 36.4199 18.242 34.7628C18.3762 33.9494 18.1524 32.9278 18.1156 31.9999C18.0352 29.9686 18.8296 28.4773 20.7682 27.6445C21.1224 27.4924 21.444 27.2252 21.8333 27.1112" stroke="#002E5D" stroke-width="1.77778" stroke-linecap="round" stroke-linejoin="round"/>
<path d="M52.3335 18.1112C52.886 19.4189 53.0526 20.8556 53.7684 22.1166C55.8079 25.7094 58.4099 28.7652 62.0082 30.8752C62.6174 31.2324 63.3227 31.4416 64.0033 31.6566C64.606 31.8469 65.3511 31.1434 65.4416 30.3331C65.541 29.442 65.3711 28.5846 64.9965 27.7796C62.925 23.3279 60.0661 19.5908 55.5607 17.3234C54.4445 16.7616 53.5479 16.9642 52.5389 17.6419C51.1237 18.5924 49.6605 19.5331 48.0959 20.1855C45.5379 21.2521 44.5318 22.929 45.5807 25.4341C47.7349 30.5788 51.2114 34.6523 56.0094 37.5402C56.6592 37.9313 57.4274 38.1341 58.2224 38.1145C58.6283 38.1045 59.0089 38.1028 59.3379 37.7825C61.0209 36.1435 62.3859 34.2355 63.8828 32.4394C64.0042 32.2936 64.0372 32.0742 64.1112 31.889" stroke="#002E5D" stroke-width="1.55556" stroke-linecap="round" stroke-linejoin="round"/>
<path d="M42.4443 17.8886C42.4443 16.0738 42.3108 14.2456 42.4909 12.4489C42.6122 11.2391 42.4608 10.0731 42.436 8.8888C42.4023 7.2761 41.8348 6.71603 40.2223 6.55318C38.2214 6.35111 36.2216 6.40803 34.2223 6.55838C33.3491 6.62405 32.5702 7.36434 32.5649 8.22202C32.5425 11.8515 32.5515 15.4812 32.5649 19.1108C32.5657 19.3333 32.7036 19.5553 32.7776 19.7775" stroke="#002E5D" stroke-width="1.77778" stroke-linecap="round" stroke-linejoin="round"/>
<path d="M14.8887 47.6663C15.0687 52.407 15.0687 57.1477 14.8887 61.8885" stroke="#002E5D" stroke-width="1.77778" stroke-linecap="round" stroke-linejoin="round"/>
<path d="M27.778 22.4449C27.2385 22.1695 26.9421 21.6472 26.5619 21.2172C25.1918 19.6677 23.1395 19.4706 21.5463 20.6544C20.0399 21.7737 19.7004 24.1908 20.8454 25.8092C21.6893 27.0019 22.6275 27.5357 23.9985 27.323C25.3109 27.1195 26.5949 27.3269 27.8893 27.4433C28.6801 27.5143 29.3604 27.2813 29.8891 26.6671" stroke="#002E5D" stroke-width="1.77778" stroke-linecap="round" stroke-linejoin="round"/>
<path d="M47.4442 20.3331C46.5613 19.1289 45.2663 18.7592 43.9099 18.2737C41.2609 17.3255 39.6882 19.3421 40.1477 21.882C40.3824 23.1791 40.9589 24.4273 41.375 25.6893C41.7931 26.9575 42.5569 27.9232 43.2044 29.0102C43.918 30.2082 44.6734 31.3628 45.5406 32.4559C45.9378 32.9564 46.4671 33.4261 46.5413 34.1124C46.5842 34.5085 46.8867 34.5066 47.1019 34.6777C48.1297 35.4953 49.127 36.3515 49.5553 37.6664" stroke="#002E5D" stroke-width="1.55556" stroke-linecap="round" stroke-linejoin="round"/>
<path d="M29.333 22.8888C29.7983 23.8354 29.875 24.8849 30.0893 25.8934C30.1849 26.3431 30.426 26.5351 30.7791 26.662C31.8553 27.0488 32.9382 27.5042 34.1091 27.3226C36.1962 26.9988 38.2541 27.609 40.3338 27.4546C40.7913 27.4206 41.2425 27.4198 41.6663 27.2221" stroke="#002E5D" stroke-width="1.77778" stroke-linecap="round" stroke-linejoin="round"/>
<path d="M52.4444 72C51.2554 71.2374 50.1096 71.2374 49.2222 72C48.1976 72.8805 47.8843 74.2233 48.4444 75.3333C49.0404 76.5145 50.1756 77.1132 51.4438 76.8855C52.5414 76.6885 53.2826 75.9716 53.6416 74.9908C54.059 73.8505 53.6546 72.828 52.7777 72" stroke="#002E5D" stroke-width="1.55556" stroke-linecap="round" stroke-linejoin="round"/>
<path d="M56.9998 43.1114C56.6174 44.2773 56.7784 45.4772 56.7777 46.6669C56.7775 46.9632 56.7776 47.2595 56.7776 47.5558C56.7776 50.3706 56.9156 53.1949 56.7242 55.9966C56.615 57.594 56.9244 59.172 56.6479 60.7938C56.5098 61.6037 56.7562 62.6286 56.7665 63.556C56.778 64.5984 56.0244 65.1092 54.9982 64.8971C53.6773 64.624 52.3289 64.7547 51.0013 64.8124C50.3034 64.8427 49.6993 65.345 49.3362 66.002C48.7907 66.9891 49.3241 67.8468 50.4438 67.8998C51.4814 67.9489 52.5182 67.7519 53.5648 68.0816C54.2555 68.2992 55.2848 67.2535 55.3293 66.4445C55.3516 66.0383 55.3332 65.6299 55.3332 65.2225" stroke="#002E5D" stroke-width="1.77778" stroke-linecap="round" stroke-linejoin="round"/>
<path d="M21.222 68.2222C21.1134 69.6223 21.2433 70.9523 22.419 71.9854C21.6533 72.546 21.1069 73.1581 21.1045 74.1111C21.1027 74.8312 21.3337 75.4732 21.7873 75.9915C22.7543 77.0965 24.6792 77.2403 25.6664 76.3333C26.9737 75.1324 27.0656 73.4327 25.8886 72.2222C24.8459 71.1498 23.5577 71.1498 22.4441 72.2223C22.9255 72.852 23.4071 73.4815 23.8886 74.1111" stroke="#002E5D" stroke-width="1.55556" stroke-linecap="round" stroke-linejoin="round"/>
<path d="M29 22.6667C28.3571 22.6392 27.9685 23.0381 27.7925 23.5605C27.3731 24.8063 26.6184 25.8652 26 27" stroke="#002E5D" stroke-width="1.55556" stroke-linecap="round" stroke-linejoin="round"/>
<path d="M19.2225 65.1108C19.2225 65.4442 19.2192 65.7775 19.2231 66.1108C19.2374 67.3466 20.1879 68.3502 21.3249 68.0749C22.599 67.7665 23.8542 67.9983 25.1114 67.8886" stroke="#002E5D" stroke-width="1.77778" stroke-linecap="round" stroke-linejoin="round"/>
<path d="M53.6667 68.2222C54.0759 70.1876 52.8919 71.562 51.8852 72.9974C51.6134 73.385 51.2963 73.7407 51 74.1111" stroke="#002E5D" stroke-width="1.77778" stroke-linecap="round" stroke-linejoin="round"/>
</svg>
