<svg width="80" height="80" viewBox="0 0 80 80" fill="none" xmlns="http://www.w3.org/2000/svg">
<g clip-path="url(#clip0_0_28)">
<path d="M40.293 23.3514C40.4137 23.3541 40.4748 23.3738 40.501 23.3846C40.5269 23.3953 40.5585 23.4136 40.6035 23.4559C40.7205 23.5659 40.8642 23.7743 41.085 24.2186C44.6994 31.4948 48.3161 38.7733 51.9551 46.0408C52.0176 46.1658 52.0637 46.2877 52.1777 46.5535C52.2716 46.7723 52.4119 47.0871 52.6064 47.3875C52.8017 47.689 53.115 48.0773 53.6064 48.3445C54.1364 48.6327 54.7272 48.7014 55.3105 48.5848C56.2332 48.4003 56.8175 47.6922 57.0811 47.3494C57.38 46.9605 57.6926 46.4374 57.8369 46.2156C58.3848 45.3738 58.8158 44.3905 59.1582 43.702C59.3198 43.3769 59.4475 43.2429 59.5186 43.1893C59.5491 43.1663 59.5772 43.1521 59.6113 43.1414C59.6474 43.1302 59.7158 43.1149 59.833 43.117C60.0314 43.1206 60.1042 43.1687 60.1553 43.2098C60.2407 43.2784 60.3721 43.4303 60.5391 43.7654C62.9756 48.6576 65.4134 53.55 67.8525 58.4412C69.7145 62.175 71.5768 65.9106 73.4453 69.6434C63.7414 69.6476 54.0343 69.6463 44.2217 69.6463H36.126C35.3827 68.0714 34.6871 66.5825 33.9668 65.1219C31.4731 60.0651 28.9643 55.05 26.5 49.9979V49.9744C30.7955 41.3794 35.1275 32.8053 39.4482 24.2156C39.6763 23.7622 39.8296 23.5529 39.9482 23.4481C39.9939 23.4077 40.0268 23.3896 40.0566 23.3787C40.0876 23.3675 40.1577 23.3484 40.293 23.3514Z" stroke="#002E5D" stroke-width="3.2"/>
<path d="M17.75 43.0715C17.8829 43.0788 18.1352 43.1581 18.3438 43.5568C19.5987 45.957 20.7667 48.3817 21.9971 50.8498C25.1166 57.1078 28.2359 63.3656 31.3535 69.6242C24.0504 69.6267 16.7431 69.6252 9.33301 69.6252C7.50302 69.6252 5.76206 69.6262 4.03223 69.6232C5.64549 66.3849 7.27086 63.1548 8.89453 59.9133C11.4885 54.7345 14.0813 49.5561 16.6758 44.3781C16.9124 43.906 16.9966 43.6951 17.1504 43.4601C17.3753 43.1165 17.6165 43.0642 17.75 43.0715Z" stroke="#002E5D" stroke-width="3.2"/>
<path d="M56.2695 22.9893C57.3038 17.5674 63.0899 14.9949 67.6592 17.6573C70.8617 19.5234 72.2411 23.5164 70.9111 26.96C69.5732 30.4239 65.8249 32.4597 62.2637 31.7003C58.5581 30.9101 56.0245 27.6228 56.2051 23.836C56.2166 23.594 56.2385 23.3645 56.2695 22.9893Z" stroke="#002E5D" stroke-width="3.2"/>
<path d="M63.1708 12.5486C63.1706 11.6784 63.1133 10.9001 63.199 10.138C63.2338 9.82821 63.5799 9.55348 63.7843 9.26282C63.9946 9.54605 64.354 9.81343 64.3861 10.1156C64.4711 10.9151 64.4639 11.7342 64.3907 12.5361C64.3596 12.876 64.0716 13.1925 63.9004 13.5197C63.6573 13.2287 63.4142 12.9378 63.1708 12.5486Z" fill="#002E5D"/>
<path d="M49.3981 23.4877C50.4719 23.4373 51.4682 23.3725 52.4555 23.4401C52.749 23.4601 53.0171 23.852 53.2969 24.0736C53.0224 24.2652 52.7596 24.5982 52.4714 24.6219C51.5937 24.694 50.704 24.6846 49.8231 24.6349C49.0382 24.5906 48.7016 24.251 49.3981 23.4877Z" fill="#002E5D"/>
<path d="M77.8225 23.4129C78.1321 23.6569 78.3485 23.8971 78.5649 24.1374C78.3122 24.3073 78.0681 24.6065 77.8054 24.6239C76.8884 24.6845 75.961 24.6946 75.0463 24.6187C74.7788 24.5965 74.5404 24.2241 74.2886 24.0122C74.5513 23.8122 74.8013 23.4637 75.0792 23.4397C75.9569 23.3642 76.8451 23.4102 77.8225 23.4129Z" fill="#002E5D"/>
<path d="M63.4609 38.6951C63.3222 37.4502 63.2356 36.2488 63.2295 35.0469C63.2286 34.8736 63.6242 34.5524 63.8202 34.5643C64.0246 34.5767 64.3653 34.9004 64.3769 35.1034C64.4357 36.1335 64.4527 37.1724 64.3693 38.1988C64.353 38.3998 63.8288 38.5596 63.4609 38.6951Z" fill="#002E5D"/>
<path d="M53.2588 34.3307C54.0526 33.2924 54.8778 32.3126 55.7402 31.3666C55.8147 31.285 56.2007 31.3615 56.3219 31.4838C56.4422 31.6051 56.5157 31.9764 56.4295 32.0674C55.5984 32.9445 54.737 33.794 53.8541 34.619C53.7922 34.6768 53.4903 34.4777 53.2588 34.3307Z" fill="#002E5D"/>
<path d="M74.2186 13.5792C74.2501 13.8952 74.3201 14.2495 74.1753 14.4104C73.5106 15.1488 72.8057 15.8552 72.0671 16.5195C71.9047 16.6654 71.5108 16.6774 71.2908 16.5872C71.1676 16.5367 71.0595 16.0309 71.1542 15.9329C71.9919 15.0662 72.8723 14.2402 73.7582 13.4219C73.8125 13.3718 74.0213 13.489 74.2186 13.5792Z" fill="#002E5D"/>
<path d="M74.1905 33.6117C74.208 33.9639 74.176 34.253 74.144 34.5421C73.8809 34.5009 73.5346 34.5518 73.3692 34.4024C72.6577 33.76 71.9716 33.0829 71.3406 32.3621C71.1777 32.176 71.2488 31.7851 71.2124 31.4883C71.5365 31.5215 71.9623 31.4356 72.1663 31.6096C72.8665 32.2068 73.4889 32.8951 74.1905 33.6117Z" fill="#002E5D"/>
<path d="M56.4371 15.9185C56.4756 16.9266 55.9915 16.9483 55.4377 16.4714C54.7159 15.8499 54.0499 15.1556 53.4236 14.4371C53.2732 14.2645 53.3743 13.8727 53.3597 13.5818C53.6518 13.6021 54.0463 13.5083 54.2183 13.6626C54.9827 14.3483 55.6834 15.1051 56.4371 15.9185Z" fill="#002E5D"/>
</g>
<defs>
<clipPath id="clip0_0_28">
<rect width="80" height="80" fill="white"/>
</clipPath>
</defs>
</svg>
