<svg width="80" height="80" viewBox="0 0 80 80" fill="none" xmlns="http://www.w3.org/2000/svg">
<path d="M23.2134 8.39705C28.7182 6.972 34.1487 5.62861 39.5386 4.13868C40.964 3.74468 42.2114 4.03395 43.5178 4.37313C53.285 6.90904 63.0492 9.45654 72.8189 11.9828C73.9297 12.27 74.1744 13.0053 74.172 14.0228C74.1558 20.7271 74.1645 27.4314 74.1649 34.1358C74.1652 38.3402 74.1588 42.5446 74.1667 46.749C74.1797 53.6744 71.5684 59.5789 67.07 64.6993C61.4544 71.0914 54.1477 74.6868 46.1593 77.1074C46.1232 77.1183 46.0817 77.1152 46.0484 77.1308C42.4388 78.8217 38.9209 78.2092 35.2977 76.9834C28.7731 74.776 22.6388 71.912 17.5305 67.1987C12.2845 62.3585 9.01704 56.4387 8.15233 49.2858C8.09351 48.7993 8.10703 48.3026 8.10692 47.8106C8.10463 36.6746 8.10461 25.5386 8.10561 14.4026C8.10578 12.4862 8.27152 12.2659 10.175 11.7712C14.4898 10.6497 18.8074 9.53896 23.2134 8.39705ZM12.4429 55.6284C14.2132 59.7375 16.8264 63.2051 20.2695 66.07C26.2066 71.01 33.1829 73.6971 40.5618 75.5326C41.0147 75.6452 41.4508 75.5891 41.9043 75.4861C44.1579 74.9742 46.3673 74.307 48.5359 73.5224C54.6967 71.2936 60.3573 68.2363 64.8413 63.3297C68.828 58.9674 71.3846 53.8861 71.4676 47.9236C71.6169 37.2075 71.4979 26.4879 71.5246 15.7699C71.5271 14.7965 71.1895 14.3774 70.2466 14.1359C60.7667 11.7077 51.2975 9.23814 41.8268 6.77418C41.3345 6.64611 40.8683 6.66205 40.3764 6.78996C30.9397 9.24399 21.5048 11.7056 12.0554 14.1103C11.043 14.3679 10.7429 14.7972 10.7462 15.8108C10.7791 25.9607 10.7948 36.1109 10.7465 46.2607C10.7314 49.4464 11.228 52.5054 12.4429 55.6284Z" fill="#002E5D"/>
<path d="M30.5654 22.134C43.2347 15.1641 59.0175 21.8906 62.0187 36.5553C64.4839 48.6009 56.4057 59.9137 44.1686 61.8054C33.3524 63.4774 21.8078 56.4304 20.0276 43.6706C18.73 34.3702 22.514 27.156 30.5654 22.134ZM58.6149 34.4405C55.594 26.0413 47.064 20.9549 38.3091 22.3323C27.8416 23.9791 20.8151 33.9009 22.8719 44.2418C24.7723 53.7966 33.8144 60.5949 43.9546 59.0437C55.3661 57.2981 62.5444 45.4403 58.6149 34.4405Z" fill="#002E5D"/>
<path d="M35.8821 47.3178C36.0138 46.2242 35.5889 45.8485 34.5964 45.8921C33.3126 45.9485 32.0232 45.9265 30.738 45.885C29.3572 45.8405 28.9639 45.4489 28.9984 44.091C29.0581 41.7459 28.7253 39.4037 28.961 37.0596C29.0882 35.7948 29.4823 35.4313 30.773 35.4034C31.7185 35.383 32.6649 35.4082 33.6107 35.4004C36.1535 35.3792 35.8617 35.7271 35.8842 33.0748C35.8915 32.2046 35.8673 31.3339 35.889 30.4641C35.9265 28.9628 36.39 28.4506 37.853 28.4266C40.0469 28.3906 42.2424 28.3915 44.4363 28.4277C45.8441 28.4509 46.3359 28.9609 46.375 30.3753C46.4115 31.6986 46.4114 33.0242 46.3785 34.3476C46.3592 35.1237 46.6568 35.4386 47.443 35.4154C48.7662 35.3762 50.0915 35.3884 51.4156 35.404C52.8199 35.4204 53.2639 35.8523 53.2714 37.2274C53.284 39.5355 53.2809 41.8437 53.2666 44.1517C53.2587 45.4287 52.8775 45.829 51.5691 45.8824C50.4735 45.9271 49.3749 45.9053 48.2777 45.906C46.3899 45.9071 46.3913 45.9048 46.3912 47.7397C46.3912 48.837 46.4125 49.9351 46.3758 51.0313C46.3325 52.3255 45.8765 52.8745 44.6031 52.908C42.2594 52.9697 39.9126 52.9376 37.5676 52.9082C36.4648 52.8944 35.9186 52.2466 35.8981 51.1705C35.8742 49.9223 35.886 48.6735 35.8821 47.3178ZM39.7342 31.2083C38.9416 31.1129 38.6563 31.4722 38.6797 32.2542C38.7194 33.5782 38.7047 34.9046 38.683 36.2295C38.659 37.6936 38.1502 38.2036 36.6837 38.2263C35.3209 38.2474 33.9573 38.2461 32.5946 38.2205C31.9188 38.2078 31.6338 38.4703 31.657 39.1584C31.6902 40.1418 31.7029 41.129 31.6527 42.1109C31.6108 42.9294 31.9714 43.1645 32.7312 43.1432C34.0554 43.1063 35.3816 43.1207 36.7066 43.1408C38.1542 43.1627 38.6643 43.6842 38.6848 45.1552C38.7028 46.4424 38.7373 47.732 38.6777 49.0165C38.635 49.9349 39.0031 50.2221 39.8746 50.1669C40.7797 50.1095 41.6926 50.1216 42.5995 50.1614C43.348 50.1942 43.6032 49.8785 43.5863 49.1549C43.5545 47.7926 43.5659 46.4287 43.5881 45.0659C43.6107 43.6785 44.1298 43.1646 45.5337 43.1418C46.8965 43.1198 48.2605 43.1089 49.6227 43.1429C50.3642 43.1614 50.6415 42.866 50.6133 42.1368C50.5767 41.1917 50.5717 40.2423 50.618 39.2979C50.6558 38.5256 50.3881 38.1943 49.5837 38.2196C48.2597 38.2613 46.9334 38.2434 45.6084 38.2261C44.1371 38.2069 43.6144 37.6974 43.5902 36.2459C43.5682 34.921 43.5542 33.5946 43.5948 32.2706C43.6183 31.5009 43.3676 31.1546 42.5571 31.2002C41.689 31.2491 40.816 31.2096 39.7342 31.2083Z" fill="#002E5D"/>
</svg>
